<?xml version="1.0" standalone="no"?><!DOCTYPE svg PUBLIC "-//W3C//DTD SVG 1.1//EN" "http://www.w3.org/Graphics/SVG/1.1/DTD/svg11.dtd"><svg t="1526521304039" class="icon" style="" viewBox="0 0 1024 1024" version="1.1" xmlns="http://www.w3.org/2000/svg" p-id="28601" xmlns:xlink="http://www.w3.org/1999/xlink" width="128" height="128"><defs><style type="text/css"></style></defs><path d="M952 373.91l-29.64-228.52c-4.39-33.84-45.69-47.95-69.86-23.85l-46.24 46.1A446.17 446.17 0 0 0 519.68 64c-247.42 0-448 200.58-448 448s200.58 448 448 448a446.6 446.6 0 0 0 316.78-131.22A73.6 73.6 0 1 0 732.38 724.7a299.86 299.86 0 0 1-212.7 88.1c-166.13 0-300.8-134.67-300.8-300.8s134.67-300.8 300.8-300.8a299.46 299.46 0 0 1 181.66 61.05l-48.72 48.58c-24.24 24.16-10.1 65.63 23.85 70L906 420a41.15 41.15 0 0 0 46-46.09z" p-id="28602" fill="#DADADB"></path><path d="M460.9 627.25a51.2 51.2 0 1 0 102.4 0V422.4a51.2 51.2 0 1 0-102.4 0z" p-id="28603" fill="#DADADB"></path></svg>