<?xml version="1.0" standalone="no"?><!DOCTYPE svg PUBLIC "-//W3C//DTD SVG 1.1//EN" "http://www.w3.org/Graphics/SVG/1.1/DTD/svg11.dtd"><svg t="1528725038469" class="icon" style="" viewBox="0 0 1024 1024" version="1.1" xmlns="http://www.w3.org/2000/svg" p-id="2365" xmlns:xlink="http://www.w3.org/1999/xlink" width="128" height="128"><defs><style type="text/css"></style></defs><path d="M469.333333 853.333333c-8.533333 0-17.066667-4.266667-25.6-8.533333L238.933333 682.666667H85.333333c-25.6 0-42.666667-17.066667-42.666666-42.666667V384c0-25.6 17.066667-42.666667 42.666666-42.666667h153.6l200.533334-162.133333c12.8-8.533333 29.866667-12.8 46.933333-4.266667 17.066667 8.533333 25.6 21.333333 25.6 38.4v597.333334c0 17.066667-8.533333 29.866667-25.6 38.4-4.266667 4.266667-12.8 4.266667-17.066667 4.266666z m-341.333333-256h128c8.533333 0 17.066667 4.266667 25.6 8.533334l145.066667 115.2V302.933333L281.6 418.133333c-8.533333 4.266667-17.066667 8.533333-25.6 8.533334H128v170.666666zM814.933333 857.6c-12.8 0-21.333333-4.266667-29.866666-12.8-17.066667-17.066667-17.066667-42.666667 0-59.733333 149.333333-149.333333 149.333333-392.533333 0-541.866667-17.066667-17.066667-17.066667-42.666667 0-59.733333 17.066667-17.066667 42.666667-17.066667 59.733333 0 183.466667 183.466667 183.466667 482.133333 0 665.6-8.533333 4.266667-21.333333 8.533333-29.866667 8.533333z m-153.6-153.6c-12.8 0-21.333333-4.266667-29.866666-12.8-17.066667-17.066667-17.066667-42.666667 0-59.733333 68.266667-68.266667 68.266667-174.933333 0-243.2-17.066667-17.066667-17.066667-42.666667 0-59.733334 17.066667-17.066667 42.666667-17.066667 59.733333 0 98.133333 98.133333 98.133333 260.266667 0 362.666667-4.266667 8.533333-17.066667 12.8-29.866667 12.8z" p-id="2366"></path></svg>