<?xml version="1.0" standalone="no"?><!DOCTYPE svg PUBLIC "-//W3C//DTD SVG 1.1//EN" "http://www.w3.org/Graphics/SVG/1.1/DTD/svg11.dtd"><svg t="1526673194967" class="icon" style="" viewBox="0 0 1024 1024" version="1.1" xmlns="http://www.w3.org/2000/svg" p-id="6731" xmlns:xlink="http://www.w3.org/1999/xlink" width="128" height="128"><defs><style type="text/css"></style></defs><path d="M73.1 922l31.1 31.1c3.9 3.9 10.2 3.9 14.1 0l263.5-263.4v265.5c0 5.5 4.5 10 10 10h43.3c5.5 0 10-4.5 10-10V591.7c0-5.5-4.5-10-10-10H71.6c-5.5 0-10 4.5-10 10v44.2c0 5.5 4.5 10 10 10h263.6L73.1 907.8c-3.9 3.9-3.9 10.3 0 14.2zM924.7 70.3l31.1 31.1c3.9 3.9 3.9 10.2 0 14.1L692.3 379h265.5c5.5 0 10 4.5 10 10v43.3c0 5.5-4.5 10-10 10H594.4c-5.5 0-10-4.5-10-10V68.9c0-5.5 4.5-10 10-10h44.2c5.5 0 10 4.5 10 10v263.5L910.5 70.3c3.9-3.9 10.3-3.9 14.2 0z" p-id="6732" fill="#707070"></path></svg>