<?xml version="1.0" standalone="no"?><!DOCTYPE svg PUBLIC "-//W3C//DTD SVG 1.1//EN" "http://www.w3.org/Graphics/SVG/1.1/DTD/svg11.dtd"><svg t="1525953507374" class="icon" style="" viewBox="0 0 1024 1024" version="1.1" xmlns="http://www.w3.org/2000/svg" p-id="9927" xmlns:xlink="http://www.w3.org/1999/xlink" width="128" height="128"><defs><style type="text/css"></style></defs><path d="M511.980046 894.245797c-20.217461 0-39.09439-7.988951-53.250808-22.435988L113.219109 514.829442c-41.886993-57.06467-56.516178-128.575354-41.346687-197.763133 19.932981-90.605577 94.457302-163.862022 185.461969-182.266184 100.697423-20.36277 200.593598 21.962198 254.683517 107.702977 54.014194-85.739756 154.059771-128.064724 254.611885-107.702977 22.541389 4.53734 44.3593 12.449543 64.832588 23.558555 18.075681 9.730619 24.831548 32.305777 15.063067 50.348712-9.764388 18.042935-32.340569 24.831548-50.348712 15.063067-14.011108-7.622608-28.92989-12.993942-44.282552-16.115026-69.808926-14.011108-139.54008 15.064091-177.076998 74.559113-13.867846 21.928429-37.316907 35.107589-62.83714 35.107589-25.517163 0-48.969295-13.178137-62.832024-35.107589-37.536918-59.495022-107.162672-88.609107-177.076998-74.559113-62.653969 12.706393-113.908306 63.054081-127.631866 125.3458-10.707876 49.04195-0.905626 97.466845 27.663036 136.454812l10.05296 12.267395 329.824891 338.176093 340.973812-351.898629c27.516704-37.570687 37.314861-85.995583 26.571169-134.998647-1.305739-5.771447-2.902096-11.398608-4.753257-16.953114-6.572696-19.456121 3.8814-40.546461 23.342638-47.083341 19.527752-6.495948 40.579207 3.958148 47.040363 23.379477 2.762927 8.022721 5.081739 16.298198 6.932899 24.683169 15.21247 69.152986 0.545422 140.736325-40.256866 196.348923l-12.193717 15.174608-334.401116 343.257831c-14.084787 14.447037-32.961716 22.435988-53.184293 22.435988L511.980046 894.245797z" p-id="9928" fill="#ffffff"></path></svg>