<?xml version="1.0" standalone="no"?><!DOCTYPE svg PUBLIC "-//W3C//DTD SVG 1.1//EN" "http://www.w3.org/Graphics/SVG/1.1/DTD/svg11.dtd"><svg t="1525960299278" class="icon" style="" viewBox="0 0 1024 1024" version="1.1" xmlns="http://www.w3.org/2000/svg" p-id="4561" xmlns:xlink="http://www.w3.org/1999/xlink" width="128" height="128"><defs><style type="text/css"></style></defs><path d="M896 384a42.666667 42.666667 0 0 1-42.666667-42.666667V170.666667h-170.666666a42.666667 42.666667 0 1 1 0-85.333334h213.333333a42.666667 42.666667 0 0 1 42.666667 42.666667v213.333333a42.666667 42.666667 0 0 1-42.666667 42.666667z" fill="#DADADB" p-id="4562"></path><path d="M170.666667 896a42.624 42.624 0 0 1-30.165334-72.832l725.333334-725.333333a42.624 42.624 0 1 1 60.330666 60.330666l-725.333333 725.333334A42.538667 42.538667 0 0 1 170.666667 896zM896 938.666667h-213.333333a42.666667 42.666667 0 1 1 0-85.333334h170.666666v-170.666666a42.666667 42.666667 0 1 1 85.333334 0v213.333333a42.666667 42.666667 0 0 1-42.666667 42.666667z" fill="#DADADB" p-id="4563"></path><path d="M896 938.666667a42.538667 42.538667 0 0 1-30.165333-12.501334l-256-256a42.624 42.624 0 1 1 60.330666-60.330666l256 256A42.624 42.624 0 0 1 896 938.666667zM384 426.666667a42.538667 42.538667 0 0 1-30.165333-12.501334l-213.333334-213.333333a42.624 42.624 0 1 1 60.330667-60.330667l213.333333 213.333334A42.624 42.624 0 0 1 384 426.666667z" fill="#DADADB" p-id="4564"></path></svg>