<?xml version="1.0" standalone="no"?><!DOCTYPE svg PUBLIC "-//W3C//DTD SVG 1.1//EN" "http://www.w3.org/Graphics/SVG/1.1/DTD/svg11.dtd"><svg t="1526475339467" class="icon" style="" viewBox="0 0 1024 1024" version="1.1" xmlns="http://www.w3.org/2000/svg" p-id="6687" xmlns:xlink="http://www.w3.org/1999/xlink" width="128" height="128"><defs><style type="text/css"></style></defs><path d="M401.92 318.464c-21.504 0-38.912 17.408-38.912 38.912v309.248c0 21.504 17.408 38.912 38.912 38.912 21.504 0 38.912-17.408 38.912-38.912V357.376c0-21.504-17.408-38.912-38.912-38.912z" fill="#707070" p-id="6688"></path><path d="M936.448 332.8c-23.04-54.784-56.32-103.936-98.816-146.432S745.984 110.592 691.2 87.552C634.368 63.488 573.952 51.2 512 51.2c-61.952 0-122.368 12.288-179.2 36.352-54.784 23.04-103.936 56.32-146.432 98.816S110.592 278.016 87.552 332.8C63.488 389.632 51.2 450.048 51.2 512s12.288 122.368 36.352 179.2c23.04 54.784 56.32 103.936 98.816 146.432s91.648 75.776 146.432 98.816C389.632 960.512 450.048 972.8 512 972.8s122.368-12.288 179.2-36.352c54.784-23.04 103.936-56.32 146.432-98.816s75.776-91.648 98.816-146.432C960.512 634.368 972.8 573.952 972.8 512c0-61.952-12.288-122.368-36.352-179.2zM666.624 877.568C617.472 898.048 565.76 908.8 512 908.8s-105.472-10.24-154.624-31.232c-47.104-19.968-89.6-48.64-125.952-84.992-36.352-36.352-65.024-78.848-84.992-125.952C125.952 617.472 115.2 565.76 115.2 512s10.24-105.472 31.232-154.624c19.968-47.104 48.64-89.6 84.992-125.952 36.352-36.352 78.848-65.024 125.952-84.992C406.528 125.952 458.24 115.2 512 115.2s105.472 10.24 154.624 31.232c47.104 19.968 89.6 48.64 125.952 84.992 36.352 36.352 65.024 78.848 84.992 125.952C898.048 406.016 908.8 458.24 908.8 512s-10.24 105.472-31.232 154.624c-19.968 47.104-48.64 89.6-84.992 125.952-36.352 36.352-78.848 65.024-125.952 84.992z" fill="#707070" p-id="6689"></path><path d="M622.08 318.464c-21.504 0-38.912 17.408-38.912 38.912v309.248c0 21.504 17.408 38.912 38.912 38.912 21.504 0 38.912-17.408 38.912-38.912V357.376c0-21.504-17.408-38.912-38.912-38.912z" fill="#707070" p-id="6690"></path></svg>