<?xml version="1.0" standalone="no"?><!DOCTYPE svg PUBLIC "-//W3C//DTD SVG 1.1//EN" "http://www.w3.org/Graphics/SVG/1.1/DTD/svg11.dtd"><svg t="1525960229133" class="icon" style="" viewBox="0 0 1024 1024" version="1.1" xmlns="http://www.w3.org/2000/svg" p-id="3748" xmlns:xlink="http://www.w3.org/1999/xlink" width="128" height="128"><defs><style type="text/css"></style></defs><path d="M864.16656 736H192.16656V461.248l73.376 73.376c6.256 6.256 14.432 9.376 22.624 9.376s16.368-3.12 22.624-9.376a32 32 0 0 0 0-45.248l-127.984-127.984a32.208 32.208 0 0 0-4.912-4.016c-0.752-0.496-1.584-0.848-2.368-1.28-1.024-0.56-2.032-1.184-3.12-1.664-1.04-0.416-2.128-0.672-3.2-0.992-0.928-0.272-1.808-0.624-2.768-0.832a32.368 32.368 0 0 0-12.528 0c-0.96 0.208-1.84 0.56-2.768 0.832-1.072 0.32-2.16 0.56-3.2 0.992-1.088 0.464-2.096 1.088-3.12 1.664-0.8 0.432-1.632 0.784-2.368 1.28-1.76 1.184-3.424 2.528-4.912 4.016L9.55856 489.376a32 32 0 1 0 45.248 45.248L128.16656 461.248V768a32 32 0 0 0 32 32h704a32 32 0 0 0 0-64zM969.54256 489.376L896.16656 562.752V256a32 32 0 0 0-32-32H160.16656a32 32 0 0 0 0 64h672v274.752l-73.376-73.376a32 32 0 1 0-45.248 45.248l127.984 127.984c1.488 1.488 3.136 2.832 4.912 4.016 0.752 0.496 1.584 0.848 2.368 1.28 1.024 0.56 2.032 1.184 3.12 1.664 1.04 0.416 2.128 0.672 3.2 0.992 0.928 0.272 1.808 0.624 2.768 0.832a33.088 33.088 0 0 0 12.544-0.016c0.96-0.208 1.84-0.56 2.768-0.832 1.072-0.32 2.16-0.56 3.2-0.992 1.088-0.464 2.096-1.088 3.12-1.664 0.8-0.432 1.632-0.784 2.368-1.28 1.76-1.184 3.424-2.528 4.912-4.016l127.984-127.984a32 32 0 1 0-45.248-45.232z" fill="#DADADB" p-id="3749"></path></svg>