<?xml version="1.0" standalone="no"?><!DOCTYPE svg PUBLIC "-//W3C//DTD SVG 1.1//EN" "http://www.w3.org/Graphics/SVG/1.1/DTD/svg11.dtd"><svg t="1525963308900" class="icon" style="" viewBox="0 0 1024 1024" version="1.1" xmlns="http://www.w3.org/2000/svg" p-id="6658" xmlns:xlink="http://www.w3.org/1999/xlink" width="128" height="128"><defs><style type="text/css"></style></defs><path d="M512-0.016c-136.752 0-265.328 53.264-362.016 149.984C53.264 246.672 0 375.248 0 512s53.264 265.328 149.968 362.032c96.704 96.72 225.28 149.984 362.032 149.984s265.328-53.264 362.032-149.984C970.736 777.328 1024 648.752 1024 512s-53.264-265.328-149.984-362.032C777.328 53.248 648.752-0.016 512-0.016zM828.784 828.784C744.16 913.408 631.664 960.016 512 960.016c-119.664 0-232.16-46.608-316.768-131.232C110.608 744.16 64 631.664 64 512s46.608-232.16 131.232-316.784C279.84 110.592 392.336 63.984 512 63.984c119.664 0 232.16 46.608 316.784 131.232C913.408 279.84 960 392.336 960 512S913.408 744.16 828.784 828.784z" p-id="6659" fill="#707070"></path><path d="M675.776 486.848l-224-176c-9.632-7.568-22.736-8.976-33.76-3.632C406.992 312.576 400 323.744 400 336l0 352c0 12.256 6.992 23.424 18 28.784C422.448 718.944 427.232 720 432 720c7.04 0 14.032-2.336 19.776-6.848l224-176C683.488 531.088 688 521.808 688 512S683.488 492.912 675.776 486.848zM464 622.16l0-220.32L604.208 512 464 622.16z" p-id="6660" fill="#707070"></path></svg>