<?xml version="1.0" standalone="no"?><!DOCTYPE svg PUBLIC "-//W3C//DTD SVG 1.1//EN" "http://www.w3.org/Graphics/SVG/1.1/DTD/svg11.dtd"><svg t="1528725021570" class="icon" style="" viewBox="0 0 1024 1024" version="1.1" xmlns="http://www.w3.org/2000/svg" p-id="1977" xmlns:xlink="http://www.w3.org/1999/xlink" width="128" height="128"><defs><style type="text/css"></style></defs><path d="M469.333333 853.333333c-8.533333 0-17.066667-4.266667-25.6-8.533333L238.933333 682.666667H85.333333c-25.6 0-42.666667-17.066667-42.666666-42.666667V384c0-25.6 17.066667-42.666667 42.666666-42.666667h153.6l200.533334-162.133333c12.8-8.533333 29.866667-12.8 46.933333-4.266667 17.066667 8.533333 25.6 21.333333 25.6 38.4v597.333334c0 17.066667-8.533333 29.866667-25.6 38.4-4.266667 4.266667-12.8 4.266667-17.066667 4.266666z m-341.333333-256h128c8.533333 0 17.066667 4.266667 25.6 8.533334l145.066667 115.2V302.933333L281.6 418.133333c-8.533333 4.266667-17.066667 8.533333-25.6 8.533334H128v170.666666z" p-id="1978"></path></svg>